/* XPM */
static char *result[] = {
/* columns rows colors chars-per-pixel */
"60 60 80 1 ",
"  c #050505",
". c #070806",
"X c #080A06",
"o c #0B0B0B",
"O c gray7",
"+ c #1C1C1D",
"@ c #1E201F",
"# c #2A2E1C",
"$ c #283116",
"% c #2E361B",
"& c #2F3818",
"* c #31361D",
"= c #353D1E",
"- c #1F2321",
"; c #242525",
": c #2A2D2B",
"> c #353E21",
", c #2F3131",
"< c #343434",
"1 c #38411D",
"2 c #374020",
"3 c #3A4321",
"4 c #3C4825",
"5 c #414C22",
"6 c #434C2D",
"7 c #455227",
"8 c #485326",
"9 c #475629",
"0 c #4C5529",
"q c #4D5B2B",
"w c #545F2D",
"e c #4C5433",
"r c #4D602B",
"t c #55642E",
"y c #58662F",
"u c #59682E",
"i c #556531",
"p c #586632",
"a c #556832",
"s c #5A6B32",
"d c #5D6B39",
"f c #5E7234",
"g c #5E723C",
"h c #606D3B",
"j c #617335",
"k c #697C36",
"l c #617238",
"z c #657C39",
"x c #697E3C",
"c c #434343",
"v c #4D4C4D",
"b c #515151",
"n c #5A5C5B",
"m c #627343",
"M c #79A258",
"N c #81A75B",
"B c #85AA5C",
"V c #8BAE5E",
"C c #8EB05E",
"Z c #91B35F",
"A c #95B561",
"S c #99B762",
"D c #97B861",
"F c #9CBB62",
"G c #A2BE64",
"H c #A6C365",
"J c #AAC566",
"K c #ADC867",
"L c #ACC668",
"P c #AEC868",
"I c #B3CC6A",
"U c #B8CF6D",
"Y c #BCD16E",
"T c #BFD370",
"R c #C0D470",
"E c #86B68D",
"W c #94C9AF",
"Q c #93C9B0",
"! c #9DD3BE",
"~ c #9BD4C3",
/* pixels */
"EEEEEMMMMMMNMMMMMMMMMMMMMMMMMMMMMMMMMMMMMMMMMMNNMMMMMMM~~~~~",
"QQWMMMMMMMMMMMMMMMMMMMMMMMMMMMMMMMMMMMMMMMMMMMMMMMMMMMMMMQ~~",
"~~MMMMCNMMVBMMMBVCSDBMCMMMMMMMMASSVVMMMMMMMMMNNBMBNMNMMMMM~~",
"~MMMMASFJKJHYPLLJHHDGLKJLLIUTLLIILJFFGJGLLGPILHAHLGPLHFMMMM~",
"~MMMFGHHPIHHHHHHHJHLIJHJJHJHHLHHJHJHHHHJJJJJJHHJGJLKIKHZBMM~",
"MMMKHHHFHHHHHJJHKKJHJJJHJJHHHLJLJJJKLIKKFKIIYYIJUIJJKJKFHMMM",
"MMVHHHHFHHHHPIIIIIIYURRTYUPIYTYYYYRRRRRRUUIIIYIIIUKKJKJFLNMM",
"MMAAFJJKIIKUIUTRTTTRTRRRRPYTYTTTRRRRRRRRRYYRRRRIIUZGIJJGGNMN",
"MMMGJPIKYUYYRRRRRRRRRRRRRYRRRRRRRRRRRRRRRRRRRRRRRRRIPLHJGNMM",
"MMMGJJPUYRRRRRRRRRRRRRRRRRCRRRRRRRRRRRRRRRRRRRRRRRRRPPLGHMMM",
"MMBSJJLYRRRRRRRRRRRRRRRRRRRRRRRRRRRRRRRRRRRRRRRRRRRRRGKHJMMM",
"MMNGHJKRRRRRRRRRRRRRRRRRRRRRRRRRRRRRRVRRRRRRRRRRRRRRRPJGGMMM",
"MMNHJJIRRRCRRRRRRRRRRRRRRRRRRRRRRRRRRRRRRRRRRRRRRRRRRUJHSMMM",
"MMMJHJIRRRRRRRRRRRRRRRRRRRRRRRRRRRRRRRRRRRRRRRRRRRRRRRJHAMMM",
"MMNHHJURRRRRRRRRRRRRRRRRRRRRRRRRRRRRRRRRRRRRRRVRRRRRRUPGVMMM",
"MMMHJLRRRRRRRRRRRRRRRRRRRRRRRRRRRRRRRRRRRRRRRRRRRRRRRUPJSMMM",
"MMMJHIRRRRRRRRRRRTTTRRRRRRRRRRRRRRRRRRRRRRRRRRRRRRRRTTJHZMMM",
"MMBHHLRRRRRRRRRRYARRRRRRRRRRRRRRRRRRRRRRRRRRRRRRRRRRTYJHZMMM",
"MMCJHKRRRRRRRRRRRTRRRRRYRRRRRRRRRRRRRRRRRRRRRRRYRRTTRYJHFCMM",
"MMZHHKRRRRRRRRRRRRRRRRRYRRRRRRRRRRRYRRRRRRRRRRRYRRTTTIJHFCMM",
"MMVHHKRRRRRRRRRRRRRRR.                          .RRRTUJJKCMM",
"MMVHJJRRRR+RRRRRRRRRRRRRRYYRYRYYRRU YYYRRYRRYYRRYTRRTUJJIVMM",
"MMCHHLRRR + RRRRRRRRRRRRRRRRRRRRRR 6 RRRRRRRRRRRRRRRTRKJKMMM",
"MMZHJPRR++++@RRRRRRRRRRRZRRRRRRRR pid.TTRRRZRRRRRRRRYYYJGMMM",
"MMCHHPYYR + RRRRRRRRRRRRRRRRRRRR kfssuoYRRRTRRRRRRRRRUIJFMMM",
"MMNAPKIRR + RRRRVRRRRRRRRRRRRRR 0&&5=1e RRRRRRRRRRRRRUKHFMMM",
"MMMVLKKRR t RRRRRRRRRRRRRRRR. . . . X . o RRRRRRRRRRTIJJGMMM",
"MMMBHJJR 0um RRRRRRRRRRRRRoomtrfu qy7@+#@; oRRRRRRRRTUJHFMMM",
"MMMNLHJR 6ppd..XRRRRTT    zzayytr.ts6;n;;;vb RRRRRRRTYKJHMMM",
"MMMVLJJT >85qlddX  .  ffljiiiiaay wuw;n;;;;<b.RRRRRRRRJJFMMM",
"MMMSJHIYR >>439afdadsxu8X.X XXts qisw-:b<;;;;bXTRRRRTYJJHMMM",
"MMMSJHIRRR..XXXoXoXooXoXdfffff. wtyip0@<,:;;:6<XRRRRRUJHFMMM",
"MMMAHHIRRRRRR...lmmgrdi0.  X..wtyyytyjq;-;-;-;- TTRRRIJHGMMM",
"MMMGHJIYRRRRRRRYoXXX .499eqq0tyyypppyujjuyttttutXRRRTIJHGMMM",
"MMMHHHIRRRRRRRRRRRRRTToo...41*>05555457qytyyuitiXRRRTKJHFDBM",
"MMMHJHIRRRRRRRRRRRRRTTRRTTTo  :#%ooXoXo$53%==%> RRRRTIHHGZCM",
"MMMLHHIRRRRRRRRRRRRRRRRRTTRRRR...jjjjjfooXoooXoRRRRRYIHHHVBM",
"MMMHHHIRRRRRRRRRRRRRRRRRTTRRRRRRRooooooRoTORTTRRRRRRTIKHHVBM",
"MMMGHHIRRRRRRRRRRSRRRRRRRRoRRRRRRRoRORRRoRoRRRORRRTTTTKJHZMM",
"MMMFHHYTRRRRRRRRRRRRRRRRRRRooooOooooooooooooooRRRRTTTTJHHZMM",
"MMMDHHIRRRRRRRRRRRRRRRRRYORRRRRRRRRRORRRRRORRRRoRRRRRUJHHCMM",
"MMMSHHYRRRRRRRRRRRRRRRRRRROooooooooooooooooooooRRRRRTIHHHBMM",
"MMMZHHIRRRRRRRRRRRRRRRRRRRRRRRRRRRRRTRRRRRRRRRRRRRRRTKJJGMMM",
"MMMZHHIIRRRRRRRRRRRRRRRRRRRRRRRRRRRRRRRRRRRRRRRRRRRRTKHHFMMM",
"MMMZJHJJRCRRRRRRRRRRRRRRRRRRRRRRRRRRRRRRRRRRRRRRRRRRTUHGDMMM",
"MMMFJHJIRRRRRRRRRRRRRRRRRRRRRRCRRRRRRRRRRRRRRRRRRRRRTUJHAMMM",
"MMMSKHHPRRRRRRRRRRRRRRRRRRRRRRRRRRRRRRRRRRRRRRRRRRTTTYKJGMMM",
"MMMGJHJIRRRRRRRRRRSRRRRRRRRRRRRRRRRRTTARRRRRRRCRRTTTTTKJFMMM",
"MMMGLHJIYRRRRRRRRRRRRRRRRRRRRRRRRRRRRRRRRRRRRRRRRRRRRYJJZMMM",
"MMMASHJYYRRRRRRRRRRRRRRRRRRRRRRRRRRRRRRRRRRRRRRRRRRRRKJJVMMM",
"MMMVAHJRIRRRRRRRRRRRRRRRRRRRRRRRRRRRRRRRRRRRRRRRRRRRTJJJBMMM",
"MMMZSHKRUYRRRRRRRRRRRRRRAYRRRRRRRRRRRRRRRRRRRRRRRRRRPKKJFMMM",
"MMMCZHJYYUYTTYRRRRRYYYYRYIYRRRRYRYTTRTRRRRRRTTTTTTTIKKIJKMMM",
"MMMBSJKIYIIISYYYRIPPKIIIKKKIUIIKIIPPIIITTTRRRTYYIYKJPIKKKMMM",
"MMMMSHJKUJPHHJHJJJJJJJJJKKPKJJJJHJLHLLHLIIRTIKJJKJJHJIKJGMMM",
"~MMMHJJHPIJHHIUJHJHJJJJJKJKJJJJHJHLKHHHPJJKJJJJJJJJJKJJHCMM!",
"~MMMVJILHGSSALIPJJHJKIGPLLLHHJJHHHJKHHHJJJJJHJHHHGGHHGGCMMM!",
"~~MMMBABNBVMMMMMMMNMMNMMVSAAAFHFZDAAZCCMZZFFFDCMCCMBBVMMMM~!",
"~~~MMMMMMMMMMMMMMMMMMMMMMNMMVNMMMMMMMMMMMMMMMMMMMMMMMMMMM~~~",
"~~~~MMMMMMMMMMMMMMMMMMMMMMMMMMMMMMMMMMMMMMMMMMMMMMMMMMMM~~~~"
};
