/* XPM */
static char *result[] = {
/* columns rows colors chars-per-pixel */
"60 60 221 2 ",
"   c #957A4B",
".  c #BD757E",
"X  c #67835C",
"o  c #79A058",
"O  c #78A158",
"+  c #79A158",
"@  c #78A159",
"#  c #7AA158",
"$  c #79A258",
"%  c #79A259",
"&  c #7AA258",
"*  c #7AA358",
"=  c #7AA259",
"-  c #7AA359",
";  c #7BA359",
":  c #79A25A",
">  c #7CA359",
",  c #7CA35A",
"<  c #7BA459",
"1  c #7CA459",
"2  c #7DA459",
"3  c #7DA559",
"4  c #7EA559",
"5  c #7FA559",
"6  c #7EA659",
"7  c #7FA659",
"8  c #7EA65A",
"9  c #7FA65A",
"0  c #B09643",
"q  c #80A65A",
"w  c #80A75A",
"e  c #81A75A",
"r  c #80A75B",
"t  c #81A85A",
"y  c #82A85A",
"u  c #83A85A",
"i  c #83A95A",
"p  c #83A85B",
"a  c #83A95B",
"s  c #84A95B",
"d  c #84AA5B",
"f  c #85AA5B",
"g  c #86AA5B",
"h  c #86AB5B",
"j  c #87AC5B",
"k  c #84A95C",
"l  c #85AA5C",
"z  c #86AB5C",
"x  c #87AC5C",
"c  c #88AB5D",
"v  c #88AC5C",
"b  c #88AD5C",
"n  c #89AD5C",
"m  c #8AAD5D",
"M  c #89AE5C",
"N  c #8AAE5C",
"B  c #8BAE5C",
"V  c #8BAF5C",
"C  c #8CAF5D",
"Z  c #8CAE5E",
"A  c #8CB05D",
"S  c #8DB05D",
"D  c #8DB15D",
"F  c #8EB05D",
"G  c #8EB15D",
"H  c #8FB15E",
"J  c #8EB05F",
"K  c #8FB05F",
"L  c #90B25E",
"P  c #91B25E",
"I  c #90B35E",
"U  c #91B35E",
"Y  c #92B45E",
"T  c #93B55E",
"R  c #92B45F",
"E  c #93B45F",
"W  c #94B55F",
"Q  c #94B65F",
"!  c #95B75F",
"~  c #96B65F",
"^  c #96B75F",
"/  c #98B85F",
"(  c #99B95F",
")  c #BFA954",
"_  c #97AF6C",
"`  c #8FB160",
"'  c #90B060",
"]  c #92B260",
"[  c #95B461",
"{  c #96B461",
"}  c #97B661",
"|  c #9AB662",
" . c #9AB763",
".. c #98B860",
"X. c #98B960",
"o. c #99B960",
"O. c #9ABA60",
"+. c #9BBA60",
"@. c #9BBB60",
"#. c #9BBA61",
"$. c #9CBA62",
"%. c #9CBC61",
"&. c #9DBC61",
"*. c #9DBD61",
"=. c #9EBC61",
"-. c #9EBD61",
";. c #9FBE61",
":. c #9DBD62",
">. c #9EBD62",
",. c #9FBD62",
"<. c #9FBE62",
"1. c #A0BF62",
"2. c #A1BE63",
"3. c #A1BE64",
"4. c #A2BF64",
"5. c #A2BE65",
"6. c #A5BF66",
"7. c #AFBF75",
"8. c #A1C061",
"9. c #A1C161",
"0. c #A1C062",
"q. c #A1C063",
"w. c #A2C062",
"e. c #A3C162",
"r. c #A2C063",
"t. c #A2C163",
"y. c #A3C163",
"u. c #A4C262",
"i. c #A4C263",
"p. c #A5C263",
"a. c #A4C363",
"s. c #A5C363",
"d. c #A6C363",
"f. c #A6C463",
"g. c #A5C364",
"h. c #A5C365",
"j. c #A6C364",
"k. c #A7C364",
"l. c #A5C266",
"z. c #A5C366",
"x. c #A7C266",
"c. c #A6C367",
"v. c #A6C464",
"b. c #A7C464",
"n. c #A6C465",
"m. c #A7C465",
"M. c #A8C167",
"N. c #A8C464",
"B. c #A8C564",
"V. c #A8C465",
"C. c #A8C565",
"Z. c #A9C565",
"A. c #A9C665",
"S. c #AAC665",
"D. c #ABC765",
"F. c #A9C566",
"G. c #A9C666",
"H. c #AAC666",
"J. c #ABC666",
"K. c #ABC766",
"L. c #ACC766",
"P. c #ACC767",
"I. c #ADC767",
"U. c #AEC767",
"Y. c #ADC867",
"T. c #AEC867",
"R. c #A6C469",
"E. c #ADC669",
"W. c #AEC769",
"Q. c #ADC868",
"!. c #AEC868",
"~. c #AEC968",
"^. c #AFC968",
"/. c #AFC869",
"(. c #B0C968",
"). c #B0CA68",
"_. c #B1CA69",
"`. c #B1CB69",
"'. c #B2CA69",
"]. c #B2CB69",
"[. c #B3CB6A",
"{. c #B4CC6A",
"}. c #B5CD6A",
"|. c #B4CC6B",
" X c #B6CD6B",
".X c #B7CE6B",
"XX c #B6CE6C",
"oX c #B7CE6C",
"OX c #B8CE6C",
"+X c #B8CF6C",
"@X c #B9CF6C",
"#X c #B9D06D",
"$X c #BAD06D",
"%X c #BBD06D",
"&X c #BBD16D",
"*X c #BBD16E",
"=X c #BCD16E",
"-X c #BCD16F",
";X c #BDD16F",
":X c #BCD26E",
">X c #BDD26E",
",X c #BCD26F",
"<X c #BDD26F",
"1X c #BED26F",
"2X c #BED36F",
"3X c #BFD36F",
"4X c #B6C973",
"5X c #B7C973",
"6X c #B0C97E",
"7X c #BED270",
"8X c #BFD370",
"9X c #BFD470",
"0X c #C0D470",
"qX c #EAE178",
"wX c #D99A9A",
"eX c #E8B5AC",
"rX c #8EC2A3",
"tX c #98D0BC",
"yX c #F4F4A0",
"uX c #9BD4C3",
"iX c #F3D8C5",
/* pixels */
"uXuXuXuXuXO O O O O O O O O O O O O O O O O O O O O O O O O O O O O O O O O O O O O O O O O O O O O O O O O O uXuXuXuXuX",
"uXuXuXO O O O $ + O $ $ $ 1 & $ + & & $ + & $ $ 4 ; O ; 2 ; & O $ ; & ; 9 4 1 1 O O O O 4 w O O O - 1 O O O + O $ uXuXuX",
"uXuXO O O 1 O O 1 i n h e 9 ; ; - & & & 1 4 ; & ; - 1 9 y w 4 s f e $ O + ; 1 $ $ $ $ & 1 e 9 w & $ 9 h w i O O O O uXuX",
"uXO O O O O $ A 1.i.i.m.y.q.t.>.i.i.i.Z.C.H.Z.j.b.i.i.i.i.i.i.P.^.$XW.&.1.1.1.r.y.3.x.OX{.i.T T I S S t $ $ & 3 = ; 1 tX",
"uXO O O O ; i.V.V.p.i.i.i.i.i.i.i.i.i.i.i.i.i.i.i.p.p.i.i.i.i.i.i.i.i.i.i.i.i.i.g.j.Z.L.P.Y.P.^.Y.Z.j.1.&.+.T u ; O $ rX",
"O O 1 + O V v.j.i.i.i.i.i.i.i.i.b.j.V.J.V.m.g.s.g.i.i.i.i.p.i.p.V.b.g.p.g.j.j.V.b.p.v.j.s.j.V.Z.n.s.j.K.|.{./.p - ; ; ; ",
"O O O + 6 i.g.c.p.i.p.i.h.i.j.J.H.L.!.!.^.'.P.^.OX3X0X0X<X).).).P.P.J.P.P.H.Z.j.c.i.i.h.s.j.Z.Z.v.j.j.j.s.i.s.g.e 1 1 < ",
"O O O O i.p.i.i.p.C.Z.$X=X8X0X2X2X3X=X_.P.J.C.$X9X0X0X0X3X1X1X>X3X1X0X0X1X*X_.[.[.[. X[.OX1X0X1X0X0XP.C.j.6Xs.G.m.b ; 3 ",
"O O O s i.p.i.i.k.{.0X0X0X0X0X0X0X0X0X1X*X1X0X0X0X2X3X0X0X0X0X0X0X0X0X0X0X0X0X0X0X0X0X0X0X0X0X0X0X0X^.H.v.v.s.J.n.,.O O ",
"O O O q i.g.s.g.Z.1Xp.0X0X0X0X0X0X0X0X0X0X0X0X0X0XK 2X0X0X0X0X0X0X0X0X0X0X0X0X0X0X0X0X0X0X0X0X0X0X0X$X_.P.j.i.H.j.O.; 1 ",
"O O O e i.j.p.b._.0X0X0X0X0X0X0X0X0X0X0X0X0X0X0X0X8X0X0X0X0X0X0X0X0X0X0X0X0X0X0X0X0X0X0X0X0X0X0Xp.0X0X1XQ.b.s.m.g.O.1 O ",
"O O O 1 i.j.g.>X0X0X0X0X0X0X0Xp.0X0X0X0X0X0X0X3X0X0X0X0X0X0X0X0X0X0X0X2X0X0X0X0X0X0X0X9X0X0X0X0X0X0X0X$X_.!.i.i.g.=.4 + ",
"O ; O & I b.g.8X0X0X0X0X0X0X0X0X0X0X0X0X0X0X0X0X0X0X0X0X0X0X0X0X0X0X8X0X0X0X0X0X0X0X0X0X0X0X0X0X0X0X0X8X0X!.g.p.g.&.O O ",
"O O O $ ~ j.R.Z.0X0X0X0X0X0X0X0X0X0X0X0X0X0X0X0X0X0X0X0X0X0X0X0X0X0X, 8X0X0X0X0X0X0X0X0X1X0X0X0X0X0X0X0X0X1XZ.p.g.T O O ",
"O O O a j.b.p.K.0X0X) 0 0 0X0X0X0X0X0X0X9X0X0X0X0X0X0X0X0X0X0X0X0X0X8X0X0X0X0X0X0X0X0X0Xr 8X0X0X0X0X0X0X0X0X3Xi.i.h O O ",
"O O * L i.s.(.=X0X) yXqXqX0 0X0X0X0X0X0X[ 1X0X0X0X0X0X0X0X0X0X0X0X0X0X0X0X0X0X0X0X0X0X0X0X0X0X0X0X0X0X0X0X0X0X2Xi.Q O O ",
"O O 2 b i.H.+XX X   qXqXqX  X X 0X0X0X0X0X0X0X0X0X0X] 0X0X0X0X6.0X0X0X0X0X0X0X0X0X0X0X0X0X0X0X0X0X0X0X0X0X0X<XZ.Z.Z.> $ ",
"O O & i i.V.oXX D D       D D X 0X0X0X0X0X0X0X0X0X0X0X0X0X0X0X0X0X0X0X0X0X{ 8X0X0X0X0X0X0X0X>Xp.0X0X0X0X0X0X0Xg.4.O.; O ",
"O O + y 1.Z.i.4XX X X 5XX X X 5X0X0X0X3X0X0X0X0X0X0X0X0X0X0X0X0X0X0X0X0X0X0X0X0X0X0X0X8X0X0X0X0X0XwX. . 0X0X0XK.<.N ; O ",
"O O O 3 i.A.i.0X0X0Xp.0X0X0X0X0X0X0X9X2X0X0X0X0X0X0X0X0X0X0X0X0X0X0X0X0X0X0X0X0X0X0X9Xc 0X0X0X0XwXiXeXeX. 0X&Xb.i.j O O ",
"O + O 6 m.Z.P.9X0X0X0X0X0X0X0X0X0X0X0X0X0X0X0X0X0X0X0X0X0X0X0X0X0X0X0X0X0X0X0X0X0X0X0X0X0X0XX X . eXeXeX. X X p.i.B $ O ",
"O + O w V.Z.+X8X0X0X0X0X0X0X0X0X0X0X0Xp.0X0X0X0X0X0X0X0X0X0X0X0X8X0X0X0X0X0X0X0X0X0X0X0X0X0XX D D . . . D D X p.p.j * O ",
"O O $ W s.B.=X0X0X0X0X0X0X0X0X0X0X0X0X0X0X0X0X0X0X0X0X0X0X0X0X0X[ 0X0X0X0X0X0X0X0X0X0X0X0X0X7.X X X 7.X X X _ p.i.9 > + ",
"O O 1 -.i.j.$X:X0X0X0X0X0X0X0X0X0X0X0X0X0X0X0X0X0X0X0X .0X0X0X0X0X0X0X0X0X9 <X0X0X0X0X0X0X0X0X0X0X0X0X0X0X:Xp.p.P.2 z + ",
"O O 4 U i.i.j.@X0X0X0X0X` 0X0X0X0X0X0X0X0X0X0X0X0X0X0X0X0X0X0X0X0X0X0X0X0X0X0X0X0X0X0X0X0X0X0X0X0X0X0X0X0X9X*Xg.C.9 4 O ",
"O O & E i.m.v.^.0X0X0X0X0X0X0X0X0X0X0X0X0X0X0X0X0X0X0X0X0X0X0X0X0X0X0X0X0X0X0X0X0X0X0X0X0X0X0X0X0X0X0X0X0X9X2Xj.i.n O O ",
"O O & L i.V.F.K.0X0X0X0X0X0X0X8X0X0X0X0X0X0X0X0X0X0X0X0X0X0X0X0X0X0X0X0X0X0X0X0X0X0X0X0X0X0X| 0X0X0X0X0X0X0X3XC.i...O O ",
"O $ O ..:.j.m.XX0X0X0X0X0X0X0X} 0X0X0X0X0XJ 0X0X0X0X0X0X0X0X0X0X0X0X0X0X0X0X0X0X0X0X0X0X0X0X8X0X0X0X0X0X0X0X3Xg.i.G a O ",
"O & & w S 1.V.<X0X0X0X0X0X0X0X0X0X0X0X0X0X0X0X0X0X0X0X0X0X0X0X0X0X0X0X0X0X0X0X0X0X0X0X0X0X0X0X0X0X0X0X0X0X0X:Xg.i.f ; O ",
"O & 3 w R i.b.C.1X0X0X0X0X0X0X0X0X0X0X0X0X0X0X0X0X0X0X0X0X0X0X0Xp.0X0X0X0X0X0X0X0X0X0X0X0X0X0X0X0X0X0X0X0X8X2.p.s.s $ 9 ",
"O O 4 s ^ r.g.k.3X0X0X0X0X0X0X0X0X0X0X0X0X0X0X0X0X0X0X0X0X0X0X0X0X0X0X0X0X0X0X0X0X0X0X0X0X0X0X0X0X0X0X0X0X3Xg.j.i.d & O ",
"O 4 v h L +.b.*X0X0X0X0X0X0X0X0X' <X0X0X0X0X0X0X0X0X0X0X0X0X0X0X0X0X0X0X0X0X0X0X0X0X0X0X0X0X0X0X0X0X0X0X0X3Xi.j.i.L 4 + ",
"O u $ 4 v o.H.0X0X0X0X0X0X0X0X0X0X0X0X0X8X0X0X0X0X0X0X0X0X0X0X0X0X0X0X0X0X0X0X0X0X0XM.9X0X0X0X0X0X0X0X0X0X3Xi.i.i.N O O ",
"O & O f q J.Z.0X0X0Xp.0X0X0X0X0X0X0X0X0X0X0X0X0X0X0X0X9XZ 0X0X0X0X0X0Xp.0X0X0X0X0X0X0X0X0X0X0X0X0X0X0X0X0X0X2Xi.i.S O O ",
"O O 3 C E Z.Z.9X0X0X0X0X0X0X0X0X0X0X0X0X0X0X0X0X0X0X0X0X8X0X0X0X0X0X0X0X0X0X0X0X0X0X0X0X0X0XE.0X0X0X0X0X0X0X9Xi.i.H O O ",
"O $ i Q 1.b.U.0X0X0X0X0X0X0X0X0X0X0X0X0X0X0X0X0X0X0X0X0X0X0X0X9X0X0X3X0X0X8X9X0X0X0X0X0X0X0X8X0X0X0X0X8X0X0XT.s.i.f O O ",
"O O S O.i.Z.:X0X0X0X0X0X0X0X0Xp.0X0X0X0X0X0X0X0X0X0X0X3X0X0X0X0X0X0X0X0X0X0X0X0X0X8X9X0X0X0X0X0X0X0X0X0X0X0XC.g.p.m 2 $ ",
"O O h i.b.].3X8X0X0X0X0X0X0X0X0X0X0X0X0X0X0X0X0X0X0X0X0X0X0X0X0X0X0X0X0X0X0X0X0X0X0X0X0X0X0X0X0X0X0X0X0X0X1Xj.b.j.e 3 O ",
"O O e 1.i.p.C.=X0X0X0X0X0X0X0X0X0X0X0X3X0X0X0X0X0X0X0X0X0X0X0X0X0X0X0X0X0X0X0X3X0X0X0X0X8X0X0X0X0X0X0X0X0X^.m.b.O.f 9 O ",
"O O u @.i.i.i.9X0X0X8X0X0X0X0X0X0X0X0X<X0X0X0X0X0X1X0X0X0X0X0X0X0X0X0X0X0X0X0X8X0X0X0X0X{ 8X0X0X0X0X0X0X0XH.V.s.G G O O ",
"O 4 9 0.p.i.i.3X0X0X` 0X0X0X0X0X0X0X0X0X2 -X0X0X0Xl <X0X0X0X0X0X0X0X0X0X0X0X0X0X0X0X0X0X0X0X0X0X0X0X0X8X<XJ.b.i.G n O O ",
"O * 1 w.i.i.i.=X0X0X0X0X0X0X0X0X0X0X0X0X2X0X0X0X0X0X0X0X0X0X0X0X0X0X0X0X[ <X0X0X0X0X0X0X0X0X0X0X0X0X0X0X0X%XC.i.N x O O ",
"O + 5 1.p.i.~.8X0X0X0X0X0X0X0X0X0X0X0X0X0X0X0X0X0X0X0X0X0X0X0X0X0X0X0X0X0X0X0X0X0X0X0X0X0X0X0X0X0X0X0X0X0X2Xg.g.N P O + ",
"O O f w.b.s.=X0X3X0X0X0X0X0X0X0X0X0X0X0X0X0X0X0X0X0X0X0X0X0X0X8X0X0X0X0X0X0X0X0X0X0X0X0X0X0X0X0X0X0X0X0X0X0X1Xg.$.F $ + ",
"O O e V.g.l.+X>X0X0X0X0X0X0X0X0X0X0X0X0X0X0X0X0X0X0X0X0X0X0X0Xk 0X0X0X0X0X0X0X0X` 0X0X0X0X0X0X0X0X0X0X0X0X0X=Xr.5.~ = O ",
"O O u b.i.j.j.3X0X0X0X0X0Xp.0X0X0X0X0X0X0X0X0X0X0X0X0X0X0X0X0X0X0X0X0X0X0X0X0X0X0X0X0X0X0X0X0Xp.0X0X0X0X0X0Xb.g.g.N O O ",
"O & b #.*.j.#X3X0X0X0X0X0X0X0X0X0X0X0X0XwX. . 0X0X0X0X0X0X0X0X0X0X0X0X0X0X0X0X0X0X0X0X0X0X0X0X0X0X0X0X0X0X0XA.b.L n O O ",
"O w 4 x j.s.I.9X0X0X0X0X0X0X0X0X0X0Xp.wXiXeXeX. 0X0X0X0X0X0X0X0X0X0X0X0X0X0X3X0X0X0X0X0X0X0X0X0X0X0X0X0X0X0XL.g.f 7 $ O ",
"O O & G s.p.j..X0X0X0X0X0X0X0X0X0XX X . eXeXeX. X X 0X0X0X0X0X0X0X0X0X0X0X0X0X0X0X0X0X8X0X0X0X0X0X0X0X0X0X&XC.j.f h 1 = ",
"O 4 $ h g.i.s.^.0X0X0X0X0X0X0X0X0XX D D . . . D D X 0X0X0X0X0X0X0X0X` 0X0X0X0X0X0X0X0Xg.0X0X0X0X0X0X0X0Xb.s.p.b.i.G O = ",
"O O O L i.i.s.b.1X0X0X0X` 0X0X0X0X7.X X X 7.X X X 7.0X0X` 0X0X0X0X0X0X0X0X0X0X0X0X0X0X8X0X0X0X0X0X0X0X3Xz.i.j.j.i.U O O ",
"O & O n i.i.s.Z.H.0X0X0X0X0X0X0X0X0X0X0X0X0X0X0X0X0X0X0X0X0X0X0X0X0X0X0X0X0X0X0X0X0X0X0X0X0X0X0X0X0X9XV.j.i.g.g.i.N O O ",
"O 3 $ s g.g.p.s.b.S.0X0X0X0X0X0X0X0X0X0X0X0X0X0X0X0X0X0X0X0X0X0X0X0X0X0X0X0X0X0X0X0X0X0X0X3X0X0X0X2X#Xs.i.i.i.i.G 1 O O ",
"O n 1 h *.v.g.s.s.D.=X2X3X8X1X7X*X0X0X0X$XT.{.+X0X0X0X0X0X0X*X,X1X}. X:X3X9X&X<X@X].1X0X8X2X0X;X%XZ.V.b.i.g.+.I e ; O O ",
"O O e 4 X.i.v.s.s.b.B.f.v.g.i.p.j.`.^.K.s.s.s.b.B.N.s.K.H.).b.i.i.i.b..X{.b.i.i.v.L.L.].s.j.j.i.s.s.s.i.@.L O.; $ q O O ",
"uXO * 1 ; n &.i.s.s.s.s.s.s.s.s.s.s.s.s.s.s.s.s.b.s.i.i.i.v.s.s.s.s.s.i.a.i.s.s.s.s.s.s.s.s.s.s.s.s.i.i.O.W 3 $ & O O uX",
"uXO O O 1 O + $ ! d.s.*.*.( ^ h Y 1.T G Q ;.s.i.u.9.Y T T G ^ 8.u.s.s./ %.^ o.O.%.y.a.s.e.1.@.e q 1 7 2 d 8 1 $ O O O uX",
"uXuX% % : O $ O f 6 & $ n f G f n G O f G f M U u n A f O U O O h g f 6 O 3 A 3 U A 3 O 6 + O O O + O O O $ O O O O uXuX",
"uXuXuX% @ O O O O O O O O O O O + O O O O O O $ O f 3 O O O + + O O O O O 3 A A O 3 O O O O O O O O O O $ O o O o uXuXuX",
"uXuXuXuXo O O + O O O O O O O O O O O O O O O + o O O O O O O O O O O O O O O O O O O # o O O O O + + O O O O o uXuXuXuX"
};
