/* XPM */
static char *result[] = {
/* columns rows colors chars-per-pixel */
"35 37 91 1 ",
"  c #010100",
". c #080100",
"X c #1E1E1E",
"o c #023312",
"O c #22211E",
"+ c #1F1F20",
"@ c #1D162A",
"# c #201F20",
"$ c #211D2C",
"% c #1F2122",
"& c #232323",
"* c #27242E",
"= c #2C2C2C",
"- c #333333",
"; c #373936",
": c #3D3D3D",
"> c #471C03",
", c #481F04",
"< c #481E09",
"1 c #623715",
"2 c #643815",
"3 c #26431F",
"4 c #274420",
"5 c #294421",
"6 c #454545",
"7 c #48474C",
"8 c #4C4C4C",
"9 c #6E6F6E",
"0 c #71706F",
"q c #727272",
"w c #840202",
"e c #8B0602",
"r c #9A0703",
"t c #A50702",
"y c #AA0702",
"u c #AC0A03",
"i c #BD0101",
"p c #B50B03",
"a c #BC0B04",
"s c #C00502",
"d c #C20D05",
"f c #C21F0D",
"g c #C2210D",
"h c #8F5F4C",
"j c #8F624E",
"k c #90614F",
"l c #957A4B",
"z c #A6715C",
"x c #AA735D",
"c c #A97662",
"v c #AC7966",
"b c #B57B65",
"n c #BA7F66",
"m c #7A8F4E",
"M c #67835C",
"N c #B09643",
"B c #8DA45B",
"V c #8DB15D",
"C c #BFA954",
"Z c #BD8167",
"A c #BE8269",
"S c #BB8470",
"D c #99AF66",
"F c #9EB468",
"G c #A0B767",
"H c #C3846B",
"J c #C8876C",
"K c #CA896E",
"L c #CE8C71",
"P c #D18F74",
"I c #CE9077",
"U c #CE9179",
"Y c #D39075",
"T c #D5947A",
"R c #D8967B",
"E c #D9987E",
"W c #BFCF6F",
"Q c #BED26F",
"! c #B7C973",
"~ c #BFD370",
"^ c #C1D26E",
"/ c #C3CF71",
"( c #C0D470",
") c #EAE178",
"_ c #D59880",
"` c #DD9C82",
"' c #DEA286",
"] c #E3A187",
"[ c #E7A58B",
"{ c #E9A68C",
"} c #F4F4A0",
/* pixels */
"(((((((~((((~~~QQ~~~(((((((((((((((",
"((((((((((((      .  Q((((~(~((((((",
"((~(((((((((         (QQ((D~~((((((",
"(~B~((((((( .    .     Q((~((((((((",
"CNN(((~B~(( yyttttue    QQ^^((((~~(",
"}))N(~(Q((Q yppyuupt     ff^((ggg((",
")))lMM((^~~/isaidaar pdauQQfggQQ(((",
"lllVVM((((~([`HL{THj wwwwQQQQQQQ(Q(",
"M!MMM!(B(((({`HT[THh     wwQQ((((((",
"(((((((((((([[{[[EHj     QQwwwQ~(((",
"(((((((^^((([[ER[_Hk     QQQ~QQ((((",
"((((((((((((`````IAk     QQQ(((((((",
"((~m~~((('55cxxxxxxxxx   '(~(((((((",
"(((~((((`]45xxxxxxxxxxx  T''((((G((",
"(~((((({'`55xxxxxxxxxxz5o`']]/(((((",
"(((((((]`E55xxzxxxxxzzz5oT``]`(((((",
"(~(((((RTI55533355545353oITTTR^^(((",
"(Q(((~(YYL55553344443535oJYYYY(^(((",
"~@Q(((QKKH55533344445533oALLLL(((((",
"($~~(QQAZZ5555334444553-oZZJLLQ((((",
"(*====%X==OX==XXX*=-=;5:=XnHLL^^(((",
"(66666=%=&OX==XXX&===--*&XHZLL^((((",
"~78888=X==%X==XXO&-==-=&##nHLP^^(((",
"(~~~~QQAUKb%=*XXXO&&&v__EAHKK(^^(((",
"(((~(((Y]EZX==+XXX%&&A{{{PPK//(((((",
"((((((~LPJvqq95544:::cPYPPJ/(((((((",
"((~((((((Sbqq04545:::zJKJK(((^(((((",
"((~~((((~qqqqq212222212222^((((((((",
"~((((~(((qqqqq222222222222Q((((((((",
"((((((((~qqq<,>>>>,>,>>122Q((((((((",
"((((~~((~qq9,>Q~(((Q~(Q>,,~(((~G(((",
"(((((D((~~W>>>((((((((Q>>>Q((((((((",
"(((((~(((((,,,~~~~~~((~,,,~~~((((((",
"((~((((~~(~   ~~~F~~~~~   ~((((((((",
"((((((((~.    ~~(((((     ~~(((((((",
"(~(((((((     ~~(~(((     ~((((((((",
"(~(((((~(~((~~~~((((~~~~~~~((~((((("
};
