/* XPM */
static char *result[] = {
/* columns rows colors chars-per-pixel */
"40 40 49 1 ",
"  c white",
". c #D82727",
"X c #F5EA14",
"o c #EDAAAA",
"O c #D61212",
"+ c #D71818",
"@ c #E79090",
"# c #F8DDDD",
"$ c #D60000",
"% c #FDF2F2",
"& c #F6F013",
"* c #D71928",
"= c #E58A1F",
"- c #D60028",
"; c #F5EC14",
": c #F6EF13",
"> c #F7F412",
", c #F5E714",
"< c #D71328",
"1 c #EAAC1C",
"2 c #F3DF15",
"3 c #EBB01B",
"4 c #ECA4A4",
"5 c #F2DA16",
"6 c #DF6523",
"7 c #DE6023",
"8 c #E9A81C",
"9 c #E9A41D",
"0 c #DD5524",
"q c #E89F1D",
"w c #DC4D24",
"e c #E79B1E",
"r c #DB4125",
"t c #F1D217",
"y c #E7951E",
"u c #E48520",
"i c #E16C22",
"p c #EEC419",
"a c #E27921",
"s c #EDBE19",
"d c #E17321",
"f c #ECB81A",
"g c #DA3925",
"h c #D92C26",
"j c #F8FA11",
"k c #F0CB18",
"l c #DC4725",
"z c #DF6123",
"x c #E68787",
/* pixels */
"h..hhhhhhghhhhhhhhhhghhhhhghh..h.......h",
"........................................",
"........................................",
".h......................................",
".h.hg...................................",
".h.gh...................................",
"hh.hh...................................",
"........................................",
"........................................",
"........................................",
"h...................g...................",
"h...................1...................",
"h..................0,w..................",
"h..................eXe..................",
"...................kXk..................",
"..................0,X,0.................",
"..................eXXXe.................",
"..........h.....h0kXXXkw..hhhhh.........",
"...........e,XXXXXXXXXXXXXXX,e..........",
"............6tXXXXXXXXXXXXXt6...........",
".............g3XXXXXXXXXXX3g............",
"...............u2XXXXXXX2u..............",
"h...............yXXXXXXXy...............",
"................pXXXXXXXp...............",
"h..............l2XXX,XXX2g..............",
"h..............wXXXs7sXXXg..............",
"h..............fX2y...l2Xs..............",
"h.............g2tr.....lt2g.............",
"..............u3g.......g3u.............",
"..............g...........h.............",
"........................................",
"........................................",
"........................................",
".h......................................",
".h......................................",
"........................................",
"........................................",
"........................................",
"........................................",
"..h.hhhhhhhhhgggggghhh...............hhh"
};
