/* XPM */
static char *result[] = {
/* columns rows colors chars-per-pixel */
"9 9 4 1 ",
"  c #FF8000",
". c #FFBE00",
"X c #C0D470",
"o c white",
/* pixels */
"XX  ... X",
"X .oooo. ",
" .oooooo.",
" ooooooo.",
" ooooooo.",
" oooooo..",
"  oooo.. ",
"X  .... X",
"XX     XX"
};
