/* XPM */
static char *result[] = {
/* columns rows colors chars-per-pixel */
"22 22 3 1 ",
"  c #6E3D2C",
". c #686159",
"X c #C0D470",
/* pixels */
"XXXXXXXX ...XXXXXXXXXX",
"XX..X...  ...X  XXXXXX",
"X... .. .  .. X  XXXXX",
"X ... .     .  XXXXXXX",
"X. . . .   . . X ..XXX",
". XX.       ...    . X",
". X  XX  X   . X X    ",
"X . XX  XXXXX     X . ",
"X .. X XXX  . .    ...",
" . ..   X  .. ..    . ",
"    X .   XXX  .  XX  ",
" . . X  .  X  ..   X.X",
"X.. .. ..    ...  XX..",
"XX.  .. ..  ... X  .  ",
"XXX ...  ..    XXX..  ",
"XXXXX   .X     X    ..",
"XX XX X. .XXXX.    ..X",
"XXX   X   XX .. X .. X",
"XXXXX  XX.X.  ..XX  XX",
"XXX  XXXXXX XX  XXXXXX",
"XXX  XXXXXXX X XXXXXXX",
"XXXXX X XXXXXXXXXXXXXX"
};
