/* XPM */
static char *result[] = {
/* columns rows colors chars-per-pixel */
"35 37 100 2 ",
"   c #010000",
".  c #0A0000",
"X  c #1E1E1E",
"o  c #013212",
"O  c #21201E",
"+  c #1E1F20",
"@  c #1C152A",
"#  c #201F20",
"$  c #201C2B",
"%  c #1F2021",
"&  c #232323",
"*  c #26242D",
"=  c #2C2C2C",
"-  c #323232",
";  c #383738",
":  c #3D3D3D",
">  c #471C03",
",  c #481E04",
"<  c #633714",
"1  c #643815",
"2  c #26451F",
"3  c #29431F",
"4  c #274620",
"5  c #2A4621",
"6  c #304723",
"7  c #304823",
"8  c #403E44",
"9  c #454545",
"0  c #47464B",
"q  c #4B4B4C",
"w  c #6F6F6F",
"e  c #727272",
"r  c #830000",
"t  c #8C0602",
"y  c #9A0702",
"u  c #A60702",
"i  c #AC0702",
"p  c #A30802",
"a  c #AB0902",
"s  c #BE0301",
"d  c #B50B03",
"f  c #BB0B03",
"g  c #C20C04",
"h  c #C21005",
"j  c #C11708",
"k  c #C31E0C",
"l  c #8F5F4C",
"z  c #8F624F",
"x  c #9D7045",
"c  c #957A4B",
"v  c #976653",
"b  c #A6715C",
"n  c #AA735D",
"m  c #AA7662",
"M  c #AE7964",
"N  c #AB7A68",
"B  c #B57C65",
"V  c #BA7F66",
"C  c #67835C",
"Z  c #7E9860",
"A  c #B09643",
"S  c #8DB15D",
"D  c #BFA954",
"F  c #849C62",
"G  c #BC8067",
"H  c #BE8269",
"J  c #BB8570",
"K  c #84A060",
"L  c #8AA562",
"P  c #93AC64",
"I  c #C2846B",
"U  c #C7886E",
"Y  c #CA896E",
"T  c #CC926F",
"R  c #CE8C71",
"E  c #D18E74",
"W  c #CE9374",
"Q  c #CE9179",
"!  c #D39075",
"~  c #D6947A",
"^  c #D8967D",
"/  c #DA987E",
"(  c #CBA371",
")  c #A6C067",
"_  c #B6CC6D",
"`  c #BCCD6D",
"'  c #BED26F",
"]  c #B7C973",
"[  c #BFD370",
"{  c #C0CF6D",
"}  c #C0D26F",
"|  c #C0D470",
" . c #EAE178",
".. c #D59880",
"X. c #DD9C83",
"o. c #DEA185",
"O. c #E4A187",
"+. c #E5A289",
"@. c #E9A68C",
"#. c #F4F4A0",
/* pixels */
"| | | | | | | | | | | | | | } ' } ' ' } ' [ | | | | | | | | | | | | | ",
"| | | | [ | | | | [ | | | |                   ' | | | | | | | } | | | ",
"| | | | | | | [ F [ | | | |                   | | | | | | | | | | | | ",
"| | | | | | | | | | | |           . . . . . .   [ | | | | | | | L | | ",
"D A A } | } } ' } | }         t d p p u u u i   } | | K | | | | | | [ ",
"#. .k h k ' } } k g           a d a d u d d i   ' | | | | | | | | | | ",
" . . .x C h h g } ' a f g d   y f f g f g g s { [ | | | | [ | | | | | ",
"c c c S S C | } | } r r r r   l H ~ +.! H / O.{ | | | | | | | | | | | ",
"C ] C C C [ | | r r . .       l H ~ +.E I X.@.| | | | L [ | | | | | | ",
"| | | | | r r r ` `           z I ^ @.@.O.@.@.| | | [ ' | | | | | | | ",
"| | | | } } | } ' [           z I ..@.^ ^ @.@.| | | | | | | | | [ | | ",
"| | | } | | | | [ [           v V Q X.X.X.X.X.' [ | | | | | | | | | | ",
"| | | | | | | | [ X.      n n n m n n n n n n 5 7 o.| | [ | | P ' [ | ",
"| | K [ | | | X.@...    b n n n n n n n n n n 5 2 O.o.| | | | | | | | ",
"| | | | | | @.+.@.X.o 5 n n n n n n n n n n n 5 7 O.+.@.| | | | | | [ ",
"| | | | | X.O.X.X.~ o 5 b n n n n n n n n n n 4 5 ~ / O.| | | | | | [ ",
"| | | | { ~ ~ ~ ~ R o 4 5 5 4 4 5 5 5 4 4 5 5 4 7 W ~ ~ } | | | [ | | ",
"| | | | } ! ! E ! U o 4 5 4 4 4 5 3 4 4 4 4 5 2 5 U ! ! } } | | [ [ ' ",
"| | } } } E R R R I o 4 4 4 4 4 4 4 4 4 4 4 2 4 5 U Y Y | | | | [ @ ] ",
"| | } } } R R U G G o 5 5 4 4 4 4 3 4 4 4 4 4 2 4 B I G ' } } | [ $ [ ",
"| | ' } | R R H V + - - : ; = = = * X X X = = & % = = X % = = = - * [ ",
"| | | | } R E G H % & * - - = - - & X % X = = O % = = % = 9 9 9 q 6 [ ",
"| | | K | E W H G X X X = = = = = & O X X = = X % = = X = q q q q q [ ",
"| | | | | R R U G H ..^ X.N & & & O % X X & = O B U Q H ' [ ' ' [ [ [ ",
"| | | | | | ( E R E @.@.@.H & X X X X X X * = X G ^ O.! [ [ | | | | | ",
"| | | | | | } W R E E E E m : : : 4 3 4 2 e e e N U ! R [ [ | | [ | | ",
"| | | | | | | | | T Y Y Y b : : : 5 2 2 2 e e e B H [ [ | | | | ) | | ",
"| | | | | | | | | 1 < 1 1 1 1 1 1 < 1 < 1 e e e e e [ [ | | | | | | | ",
"| | [ [ | | | | | 1 1 1 1 < 1 < < < 1 1 1 e e e e e | | | | | | | | | ",
"| | | [ [ | | | | 1 1 < > > > > > > > > > > > e e e [ | | | | | [ [ | ",
"| | | P ' | | | | > > > [ [ ` | [ } | | [ , , w e e [ | [ [ | } [ [ [ ",
"| | | [ [ | | | ' > > > [ | | | | | | | ' > , , [ | | [ [ F | [ [ [ [ ",
"| | | | | | | | | , , , [ | | | [ [ [ | | , , , [ [ [ | | | | | | | | ",
"[ | | | | | [ | |       [ | | | [ K | | |       [ [ | | | | [ | | | | ",
"| | | | | | | | |           | | [ [ | [ |           [ | | | | | | | | ",
"| | | | | | | | [           | | | | | [ |           [ | | | | | | | | ",
"| | | [ | | | | | [ | | [ | | | [ [ [ [ [ ' ' [ [ [ [ [ [ | | | | Z ' "
};
