/* XPM */
static char *result[] = {
/* columns rows colors chars-per-pixel */
"60 60 2 1 ",
"  c #B1E0BE",
". c #9BD4C3",
/* pixels */
"............................................................",
"............................................................",
"..........    .............   .............  .............  ",
"............................................................",
"....   .............   ..............   .............   ....",
"............................................................",
"............................................................",
"............     ............    ............   ............",
"............................................................",
"............................................................",
"......    .............    ............    ...........    ..",
"............................................................",
".  ..............  ...............  ..............  ........",
"............................................................",
"..........   .............    .............   ............. ",
"....   ..............   .............   ............   .....",
"...............    .............   .............  ..........",
"............................................................",
".........   .............   ..............   .............  ",
"............................................................",
"............................................................",
"..   ............     ............    ............   .......",
"............................................................",
"............................................................",
"...........    .............    ............    ........... ",
"............................................................",
"   ...  ..............  ...............  ..............  ...",
"............................................................",
"...............   .............    .............   .........",
".........   ..............   .............   ............   ",
"............................................................",
".. .........................................................",
"..........    .............   .............  .............  ",
"............................................................",
"....   .............   ..............   .............   ....",
"............................................................",
"............................................................",
"............     ............    ............   ............",
".  .........................................................",
"............................................................",
"......    .............    ............    ...........    ..",
"............................................................",
".  ..............  ...............  ..............  ........",
"............................................................",
"..........   .............    .............   ............. ",
"....   ..............   .............   ............   .....",
"............................................................",
"............    .............   .............  .............",
"............................................................",
"......   .............   ..............   .............   ..",
"............................................................",
"............................................................",
"  ............     ............    ............   ..........",
"............................................................",
"............................................................",
"........    .............    ............    ...........    ",
"............................................................",
"...  ..............  ...............  ..............  ......",
"............................................................",
"............   .............    .............   ............"
};
