/* XPM */
static char *result[] = {
/* columns rows colors chars-per-pixel */
"32 20 3 1 ",
"  c yellow",
". c #C0D470",
"X c white",
/* pixels */
".............      .............",
"...........          ...........",
".........    XXXXXX    .........",
"........   XXXXXXXXXX   ........",
"........  XXXXXXXXXXXX    ......",
".......  XXXXXXXXXXXXXX         ",
".......  XXXXXXXXXXXXXXXXXXX   .",
"......  XXXXXXXXXXXXXXXXXXX  ...",
"......  XXXXXXXXXXXXXXXXXX  ....",
"......  XXXXXXXXXXXXXXXXX  .....",
".....  XXXXXXXXXXXXXXXXX  ......",
"....  XXXXXXXXXXXXXXXXXX  ......",
"...  XXXXXXXXXXXXXXXXXXX  ......",
".   XXXXXXXXXXXXXXXXXXX  .......",
"        XXXXXXXXXXXXXXX  .......",
"......    XXXXXXXXXXXX  ........",
"........   XXXXXXXXXX   ........",
".........    XXXXXX    .........",
"...........          ...........",
".............      ............."
};
