/* XPM */
static char *result[] = {
/* columns rows colors chars-per-pixel */
"20 21 2 1 ",
"  c #6E3D2C",
". c #C0D470",
/* pixels */
"............  ......",
".............. .....",
".....  .............",
". ....  .. . .......",
" . .. ...    .  ....",
". .  .. .. .. . ....",
" .. ..  ..... .. ...",
" ....... . . .  .. .",
".  .. ....  ..  ... ",
".. .   ...... .. ...",
"..... . ....... . ..",
"................ ...",
" .. ..........  . ..",
"..... .......   ....",
".......... .  ......",
". ....... .     ....",
". ........ . . ...  ",
"... . ............ .",
"...... .............",
"........... ........",
".......... ........."
};
