/* XPM */
static char *result[] = {
/* columns rows colors chars-per-pixel */
"22 21 6 1 ",
"  c #686159",
". c red",
"X c #FF8000",
"o c #FFBE00",
"O c yellow",
"+ c #C0D470",
/* pixels */
"++++++XXooo+++++++++++",
"+++++XXoOOoo++++++++++",
"+++XXXooOOOoX.XXX+++++",
"++XXooooooooXXooXX++++",
"++XoOOoXoooXXXoooXX+++",
"+XoOOOoXXXoooXXoXX..++",
"+XoOOooXXoOOooXX.XX.++",
"+XooooXXooOOOoX..XX.++",
"+.XooXXXoooOOoXX.....+",
"+..XXX.XooooooX..ooX..",
".. ....XXoooo...XoooX.",
".  ...X.XXXXX..XXXooX.",
"..X .XXX.XXXXooXXXXXX.",
"+..X  XX....Xoo.XXXX..",
"++.. ........XX..XX..+",
"++.    ....  .......++",
"++.X  ..  .  .  ...+++",
"+++.X.. X  ..  X .++++",
"++++.... X  ..X ..++++",
"+++++.....   ....+++++",
"+++++++...++....++++++"
};
