/* XPM */
static char *result[] = {
/* columns rows colors chars-per-pixel */
"23 22 5 1 ",
"  c #6E3D2C",
". c #686159",
"X c red",
"o c #FF8000",
"O c #C0D470",
/* pixels */
"OOOOOOXXOX...OOOOOOOOOO",
"OOOOOX..X..oo.OOXXOOOOO",
"OO ..X.XX.oo..XO.oXOOOO",
"O ..XXXX...o..XX .o.OOO",
"O..oooX.o...X..X  .. OO",
"O.ooo..ooo.XX..X   . OO",
"O.oo...oo.XXXXXX OO   O",
"OXX.......XXXXXXX O . O",
"OOXX..X..XXXX...X  ...O",
"OX.Xo.XXXXXX.oo..   . O",
"OXX....XXXX...oo.  O   ",
" XXX..X.XXX...o.. .OO. ",
"   XXX.o.X.X....X .. ..",
" . XXXX.o..XX..XX  X  .",
"O . XXXXX...XXXX XXX .o",
"O O  OXXX. XXXX   X .o.",
"OOO.OOO     .. . . ... ",
"OOO  O O  O...  ..    O",
"OOO. ..OOOO          OO",
"OOOO. ..OOO. OO ...OOOO",
"OOOOO  OO ..OOO ..OOOOO",
"OOOOOO.O.  ..O   OOOOOO"
};
